{
  "accessors": [
    {
      "bufferView": 2,
      "componentType": 5126,
      "count": 48,
      "max": [
        -0.017870863899588585,
        -0.02737509272992611,
        -0.014232895337045193
      ],
      "min": [
        -0.6720159649848938,
        -0.03180563077330589,
        -0.5984283685684204
      ],
      "type": "VEC3"
    },
    {
      "bufferView": 2,
      "byteOffset": 576,
      "componentType": 5126,
      "count": 48,
      "max": [
        0.7442421317100525,
        1.0,
        0.7692884206771851
      ],
      "min": [
        -0.888210117816925,
        -1.0,
        -0.9371221661567688
      ],
      "type": "VEC3"
    },
    {
      "bufferView": 1,
      "componentType": 5126,
      "count": 48,
      "max": [
        0.587785542011261,
        0.8831552267074585
      ],
      "min": [
        0.3073083460330963,
        0.47314316034317017
      ],
      "type": "VEC2"
    },
    {
      "bufferView": 0,
      "componentType": 5125,
      "count": 84,
      "type": "SCALAR"
    },
    {
      "bufferView": 2,
      "byteOffset": 1152,
      "componentType": 5126,
      "count": 144,
      "max": [
        -0.04430827498435974,
        0.6079251766204834,
        0.9681575298309326
      ],
      "min": [
        -0.05147889256477356,
        0.029351234436035156,
        0.08002066612243652
      ],
      "type": "VEC3"
    },
    {
      "bufferView": 2,
      "byteOffset": 2880,
      "componentType": 5126,
      "count": 144,
      "max": [
        1.0,
        0.9832022786140442,
        0.947580099105835
      ],
      "min": [
        -1.0,
        -0.9937158823013306,
        -0.9967153668403625
      ],
      "type": "VEC3"
    },
    {
      "bufferView": 1,
      "byteOffset": 384,
      "componentType": 5126,
      "count": 144,
      "max": [
        0.8124479055404663,
        0.8218891024589539
      ],
      "min": [
        0.32820945978164673,
        0.6104877591133118
      ],
      "type": "VEC2"
    },
    {
      "bufferView": 0,
      "byteOffset": 336,
      "componentType": 5125,
      "count": 276,
      "type": "SCALAR"
    },
    {
      "bufferView": 2,
      "byteOffset": 4608,
      "componentType": 5126,
      "count": 15866,
      "max": [
        1.0053728818893433,
        0.010921357199549675,
        0.9917537569999695
      ],
      "min": [
        -0.9916525483131409,
        -2.4835269396561444e-09,
        -1.0045684576034546
      ],
      "type": "VEC3"
    },
    {
      "bufferView": 2,
      "byteOffset": 195000,
      "componentType": 5126,
      "count": 15866,
      "max": [
        1.0,
        1.0,
        1.0
      ],
      "min": [
        -1.0,
        -1.0,
        -1.0
      ],
      "type": "VEC3"
    },
    {
      "bufferView": 1,
      "byteOffset": 1536,
      "componentType": 5126,
      "count": 15866,
      "max": [
        0.9336831569671631,
        0.9288656711578369
      ],
      "min": [
        0.002614259719848633,
        0.002614259719848633
      ],
      "type": "VEC2"
    },
    {
      "bufferView": 0,
      "byteOffset": 1440,
      "componentType": 5125,
      "count": 55668,
      "type": "SCALAR"
    },
    {
      "bufferView": 2,
      "byteOffset": 385392,
      "componentType": 5126,
      "count": 3450,
      "max": [
        0.6357078552246094,
        0.039461005479097366,
        0.6264693140983582
      ],
      "min": [
        -0.6519287824630737,
        -0.007489270530641079,
        -0.6597888469696045
      ],
      "type": "VEC3"
    },
    {
      "bufferView": 2,
      "byteOffset": 426792,
      "componentType": 5126,
      "count": 3450,
      "max": [
        1.0,
        1.0,
        1.0
      ],
      "min": [
        -1.0,
        -1.0,
        -1.0
      ],
      "type": "VEC3"
    },
    {
      "bufferView": 1,
      "byteOffset": 128464,
      "componentType": 5126,
      "count": 3450,
      "max": [
        0.7701656818389893,
        0.8931492567062378
      ],
      "min": [
        0.002624332904815674,
        0.47315311431884766
      ],
      "type": "VEC2"
    },
    {
      "bufferView": 0,
      "byteOffset": 224112,
      "componentType": 5125,
      "count": 8058,
      "type": "SCALAR"
    },
    {
      "bufferView": 2,
      "byteOffset": 468192,
      "componentType": 5126,
      "count": 160,
      "max": [
        0.48906904458999634,
        0.007974416017532349,
        0.4632219672203064
      ],
      "min": [
        -0.46975624561309814,
        0.006205164827406406,
        -0.4956033229827881
      ],
      "type": "VEC3"
    },
    {
      "bufferView": 2,
      "byteOffset": 470112,
      "componentType": 5126,
      "count": 160,
      "max": [
        0.9951847791671753,
        1.0,
        0.9951847791671753
      ],
      "min": [
        -0.9951847791671753,
        0.0,
        -0.9951847791671753
      ],
      "type": "VEC3"
    },
    {
      "bufferView": 1,
      "byteOffset": 156064,
      "componentType": 5126,
      "count": 160,
      "max": [
        0.9973857402801514,
        0.8586553931236267
      ],
      "min": [
        0.4316776990890503,
        0.47313356399536133
      ],
      "type": "VEC2"
    },
    {
      "bufferView": 0,
      "byteOffset": 256344,
      "componentType": 5125,
      "count": 282,
      "type": "SCALAR"
    },
    {
      "bufferView": 2,
      "byteOffset": 472032,
      "componentType": 5126,
      "count": 24,
      "max": [
        -4.1544437408447266e-05,
        0.3299905061721802,
        -0.005754825193434954
      ],
      "min": [
        -0.0021368563175201416,
        0.02551722526550293,
        -0.17417322099208832
      ],
      "type": "VEC3"
    },
    {
      "bufferView": 2,
      "byteOffset": 472320,
      "componentType": 5126,
      "count": 24,
      "max": [
        1.0,
        0.908577024936676,
        0.8890203237533569
      ],
      "min": [
        -1.0,
        -0.9085769653320313,
        -0.8890203237533569
      ],
      "type": "VEC3"
    },
    {
      "bufferView": 1,
      "byteOffset": 157344,
      "componentType": 5126,
      "count": 24,
      "max": [
        0.9347842335700989,
        0.9408743381500244
      ],
      "min": [
        0.08505983650684357,
        0.10399344563484192
      ],
      "type": "VEC2"
    },
    {
      "bufferView": 0,
      "byteOffset": 257472,
      "componentType": 5125,
      "count": 36,
      "type": "SCALAR"
    },
    {
      "bufferView": 2,
      "byteOffset": 472608,
      "componentType": 5126,
      "count": 65532,
      "max": [
        4.191264629364014,
        0.03486926481127739,
        5.116806983947754
      ],
      "min": [
        -3.4400458335876465,
        -0.03362499922513962,
        -2.514946937561035
      ],
      "type": "VEC3"
    },
    {
      "bufferView": 2,
      "byteOffset": 1258992,
      "componentType": 5126,
      "count": 65532,
      "max": [
        1.0,
        1.0,
        1.0
      ],
      "min": [
        -1.0,
        -1.0,
        -1.0
      ],
      "type": "VEC3"
    },
    {
      "bufferView": 1,
      "byteOffset": 157536,
      "componentType": 5126,
      "count": 65532,
      "max": [
        0.9919187426567078,
        0.9896004796028137
      ],
      "min": [
        0.008081197738647461,
        0.008081197738647461
      ],
      "type": "VEC2"
    },
    {
      "bufferView": 0,
      "byteOffset": 257616,
      "componentType": 5125,
      "count": 190506,
      "type": "SCALAR"
    },
    {
      "bufferView": 2,
      "byteOffset": 2045376,
      "componentType": 5126,
      "count": 29866,
      "max": [
        4.191264629364014,
        0.021189838647842407,
        5.116806983947754
      ],
      "min": [
        -3.4400458335876465,
        -0.03362499922513962,
        -2.514946937561035
      ],
      "type": "VEC3"
    },
    {
      "bufferView": 2,
      "byteOffset": 2403768,
      "componentType": 5126,
      "count": 29866,
      "max": [
        1.0,
        1.0,
        1.0
      ],
      "min": [
        -1.0,
        -1.0,
        -1.0
      ],
      "type": "VEC3"
    },
    {
      "bufferView": 1,
      "byteOffset": 681792,
      "componentType": 5126,
      "count": 29866,
      "max": [
        0.9861692190170288,
        0.9853249788284302
      ],
      "min": [
        0.008081197738647461,
        0.008081197738647461
      ],
      "type": "VEC2"
    },
    {
      "bufferView": 0,
      "byteOffset": 1019640,
      "componentType": 5125,
      "count": 87258,
      "type": "SCALAR"
    },
    {
      "bufferView": 2,
      "byteOffset": 2762160,
      "componentType": 5126,
      "count": 19520,
      "max": [
        1.5178357362747192,
        -0.009197824634611607,
        4.066737174987793
      ],
      "min": [
        -0.7495909929275513,
        -0.03584339842200279,
        1.799310564994812
      ],
      "type": "VEC3"
    },
    {
      "bufferView": 2,
      "byteOffset": 2996400,
      "componentType": 5126,
      "count": 19520,
      "max": [
        0.7278879880905151,
        1.0,
        0.727887749671936
      ],
      "min": [
        -0.7278878092765808,
        -1.0,
        -0.7278878688812256
      ],
      "type": "VEC3"
    },
    {
      "bufferView": 1,
      "byteOffset": 920720,
      "componentType": 5126,
      "count": 19520,
      "max": [
        0.17629608511924744,
        0.17629611492156982
      ],
      "min": [
        0.008081316947937012,
        0.008081316947937012
      ],
      "type": "VEC2"
    },
    {
      "bufferView": 0,
      "byteOffset": 1368672,
      "componentType": 5125,
      "count": 35316,
      "type": "SCALAR"
    },
    {
      "bufferView": 2,
      "byteOffset": 3230640,
      "componentType": 5126,
      "count": 23739,
      "max": [
        2.0799505710601807,
        4.000098705291748,
        0.8876005411148071
      ],
      "min": [
        -2.225428581237793,
        -2.069498062133789,
        -0.8876005411148071
      ],
      "type": "VEC3"
    },
    {
      "bufferView": 2,
      "byteOffset": 3515508,
      "componentType": 5126,
      "count": 23739,
      "max": [
        1.0,
        1.0,
        1.0
      ],
      "min": [
        -1.0,
        -1.0,
        -1.0
      ],
      "type": "VEC3"
    },
    {
      "bufferView": 1,
      "byteOffset": 1076880,
      "componentType": 5126,
      "count": 23739,
      "max": [
        0.9955303072929382,
        0.9906674027442932
      ],
      "min": [
        0.004469633102416992,
        0.004469633102416992
      ],
      "type": "VEC2"
    },
    {
      "bufferView": 0,
      "byteOffset": 1509936,
      "componentType": 5125,
      "count": 42204,
      "type": "SCALAR"
    },
    {
      "bufferView": 2,
      "byteOffset": 3800376,
      "componentType": 5126,
      "count": 65532,
      "max": [
        0.9707854390144348,
        0.9977872371673584,
        0.9707854986190796
      ],
      "min": [
        -0.9707854986190796,
        -0.23882165551185608,
        -0.9521320462226868
      ],
      "type": "VEC3"
    },
    {
      "bufferView": 2,
      "byteOffset": 4586760,
      "componentType": 5126,
      "count": 65532,
      "max": [
        0.9999802112579346,
        0.9995930790901184,
        0.999980092048645
      ],
      "min": [
        -0.999980092048645,
        -0.9999999403953552,
        -0.999980092048645
      ],
      "type": "VEC3"
    },
    {
      "bufferView": 1,
      "byteOffset": 1266792,
      "componentType": 5126,
      "count": 65532,
      "max": [
        0.9269130825996399,
        0.6958850622177124
      ],
      "min": [
        0.009983062744140625,
        0.0028210878372192383
      ],
      "type": "VEC2"
    },
    {
      "bufferView": 0,
      "byteOffset": 1678752,
      "componentType": 5125,
      "count": 98298,
      "type": "SCALAR"
    },
    {
      "bufferView": 2,
      "byteOffset": 5373144,
      "componentType": 5126,
      "count": 65533,
      "max": [
        0.9836599826812744,
        0.997191309928894,
        0.9836599826812744
      ],
      "min": [
        -0.9836599826812744,
        -0.23882178962230682,
        -0.9836599826812744
      ],
      "type": "VEC3"
    },
    {
      "bufferView": 2,
      "byteOffset": 6159540,
      "componentType": 5126,
      "count": 65533,
      "max": [
        0.9999811053276062,
        1.0,
        0.999981164932251
      ],
      "min": [
        -0.9999811053276062,
        -1.0,
        -0.9999811053276062
      ],
      "type": "VEC3"
    },
    {
      "bufferView": 1,
      "byteOffset": 1791048,
      "componentType": 5126,
      "count": 65533,
      "max": [
        0.9269130825996399,
        0.9971789717674255
      ],
      "min": [
        0.002821207046508789,
        0.0028211474418640137
      ],
      "type": "VEC2"
    },
    {
      "bufferView": 0,
      "byteOffset": 2071944,
      "componentType": 5125,
      "count": 98301,
      "type": "SCALAR"
    },
    {
      "bufferView": 2,
      "byteOffset": 6945936,
      "componentType": 5126,
      "count": 65534,
      "max": [
        0.9521321058273315,
        0.9977872371673584,
        0.9521320462226868
      ],
      "min": [
        -0.9707854986190796,
        -0.23882178962230682,
        -0.9707854986190796
      ],
      "type": "VEC3"
    },
    {
      "bufferView": 2,
      "byteOffset": 7732344,
      "componentType": 5126,
      "count": 65534,
      "max": [
        0.9999493360519409,
        0.9995930194854736,
        0.9999492764472961
      ],
      "min": [
        -0.9999495148658752,
        -1.0,
        -0.9999492764472961
      ],
      "type": "VEC3"
    },
    {
      "bufferView": 1,
      "byteOffset": 2315312,
      "componentType": 5126,
      "count": 65534,
      "max": [
        0.9351678490638733,
        0.7595747113227844
      ],
      "min": [
        0.0028210878372192383,
        0.0028210878372192383
      ],
      "type": "VEC2"
    },
    {
      "bufferView": 0,
      "byteOffset": 2465148,
      "componentType": 5125,
      "count": 98298,
      "type": "SCALAR"
    },
    {
      "bufferView": 2,
      "byteOffset": 8518752,
      "componentType": 5126,
      "count": 65534,
      "max": [
        0.9107955098152161,
        0.9664206504821777,
        0.9107955098152161
      ],
      "min": [
        -0.9107955098152161,
        -0.20194345712661743,
        -0.9107955098152161
      ],
      "type": "VEC3"
    },
    {
      "bufferView": 2,
      "byteOffset": 9305160,
      "componentType": 5126,
      "count": 65534,
      "max": [
        0.9795339703559875,
        1.0,
        0.9795329570770264
      ],
      "min": [
        -0.9795348644256592,
        -0.9550412893295288,
        -0.9143465161323547
      ],
      "type": "VEC3"
    },
    {
      "bufferView": 1,
      "byteOffset": 2839584,
      "componentType": 5126,
      "count": 65534,
      "max": [
        0.9351678490638733,
        0.9787515997886658
      ],
      "min": [
        0.002821207046508789,
        0.029140949249267578
      ],
      "type": "VEC2"
    },
    {
      "bufferView": 0,
      "byteOffset": 2858340,
      "componentType": 5125,
      "count": 98298,
      "type": "SCALAR"
    },
    {
      "bufferView": 2,
      "byteOffset": 10091568,
      "componentType": 5126,
      "count": 16399,
      "max": [
        0.8932949900627136,
        0.11516164243221283,
        0.8932949304580688
      ],
      "min": [
        -0.9107955098152161,
        -0.23882165551185608,
        -0.9107955098152161
      ],
      "type": "VEC3"
    },
    {
      "bufferView": 2,
      "byteOffset": 10288356,
      "componentType": 5126,
      "count": 16399,
      "max": [
        0.8956772685050964,
        -0.40489262342453003,
        0.8956788182258606
      ],
      "min": [
        -0.914345383644104,
        -0.9999999403953552,
        -0.9143456816673279
      ],
      "type": "VEC3"
    },
    {
      "bufferView": 1,
      "byteOffset": 3363856,
      "componentType": 5126,
      "count": 16399,
      "max": [
        0.3755555748939514,
        0.7539323568344116
      ],
      "min": [
        0.002821207046508789,
        0.3883599042892456
      ],
      "type": "VEC2"
    },
    {
      "bufferView": 0,
      "byteOffset": 3251532,
      "componentType": 5125,
      "count": 24597,
      "type": "SCALAR"
    },
    {
      "bufferView": 2,
      "byteOffset": 10485144,
      "componentType": 5126,
      "count": 65532,
      "max": [
        0.8113806247711182,
        1.3032385110855103,
        0.8389095067977905
      ],
      "min": [
        -0.8420612812042236,
        0.9353700876235962,
        -0.8305718302726746
      ],
      "type": "VEC3"
    },
    {
      "bufferView": 2,
      "byteOffset": 11271528,
      "componentType": 5126,
      "count": 65532,
      "max": [
        0.9757063984870911,
        1.0,
        0.9982358813285828
      ],
      "min": [
        -0.9982343912124634,
        -1.0,
        -0.9982337355613708
      ],
      "type": "VEC3"
    },
    {
      "bufferView": 1,
      "byteOffset": 3495048,
      "componentType": 5126,
      "count": 65532,
      "max": [
        0.70282381772995,
        0.7595747113227844
      ],
      "min": [
        0.20466166734695435,
        0.0028211474418640137
      ],
      "type": "VEC2"
    },
    {
      "bufferView": 0,
      "byteOffset": 3349920,
      "componentType": 5125,
      "count": 98298,
      "type": "SCALAR"
    },
    {
      "bufferView": 2,
      "byteOffset": 12057912,
      "componentType": 5126,
      "count": 65533,
      "max": [
        0.8274196982383728,
        1.3032387495040894,
        0.8228700160980225
      ],
      "min": [
        -0.8260220289230347,
        0.9353694319725037,
        -0.8305718302726746
      ],
      "type": "VEC3"
    },
    {
      "bufferView": 2,
      "byteOffset": 12844308,
      "componentType": 5126,
      "count": 65533,
      "max": [
        0.9982337355613708,
        1.0,
        0.9757088422775269
      ],
      "min": [
        -0.9757083058357239,
        -1.0,
        -0.9982331395149231
      ],
      "type": "VEC3"
    },
    {
      "bufferView": 1,
      "byteOffset": 4019304,
      "componentType": 5126,
      "count": 65533,
      "max": [
        0.70282381772995,
        0.7595747709274292
      ],
      "min": [
        0.20466166734695435,
        0.0028211474418640137
      ],
      "type": "VEC2"
    },
    {
      "bufferView": 0,
      "byteOffset": 3743112,
      "componentType": 5125,
      "count": 98301,
      "type": "SCALAR"
    },
    {
      "bufferView": 2,
      "byteOffset": 13630704,
      "componentType": 5126,
      "count": 16387,
      "max": [
        0.2129410058259964,
        1.303239107131958,
        0.22443050146102905
      ],
      "min": [
        -0.1940496265888214,
        1.2932358980178833,
        -0.2204081416130066
      ],
      "type": "VEC3"
    },
    {
      "bufferView": 2,
      "byteOffset": 13827348,
      "componentType": 5126,
      "count": 16387,
      "max": [
        0.11682373285293579,
        1.0,
        0.11682981252670288
      ],
      "min": [
        -0.09874305874109268,
        0.9928585290908813,
        -0.11926554888486862
      ],
      "type": "VEC3"
    },
    {
      "bufferView": 1,
      "byteOffset": 4543568,
      "componentType": 5126,
      "count": 16387,
      "max": [
        0.5777683258056641,
        0.20966887474060059
      ],
      "min": [
        0.49774518609046936,
        0.11759940534830093
      ],
      "type": "VEC2"
    },
    {
      "bufferView": 0,
      "byteOffset": 4136316,
      "componentType": 5125,
      "count": 24585,
      "type": "SCALAR"
    },
    {
      "bufferView": 3,
      "componentType": 5126,
      "count": 126,
      "max": [
        10.416666984558105
      ],
      "min": [
        0.0416666679084301
      ],
      "type": "SCALAR"
    },
    {
      "bufferView": 5,
      "componentType": 5126,
      "count": 126,
      "max": [
        0.7070774435997009,
        0.7070775032043457,
        -0.006441650912165642,
        0.7070907354354858
      ],
      "min": [
        -0.7064678072929382,
        -0.7064678072929382,
        -0.7070907354354858,
        0.006434295326471329
      ],
      "type": "VEC4"
    },
    {
      "bufferView": 3,
      "byteOffset": 504,
      "componentType": 5126,
      "count": 95,
      "max": [
        10.416666984558105
      ],
      "min": [
        0.0416666679084301
      ],
      "type": "SCALAR"
    },
    {
      "bufferView": 4,
      "componentType": 5126,
      "count": 95,
      "max": [
        1.6185439825057983,
        1.6185438632965088,
        1.6185439825057983
      ],
      "min": [
        1.6185437440872192,
        1.6185438632965088,
        1.6185437440872192
      ],
      "type": "VEC3"
    },
    {
      "bufferView": 3,
      "byteOffset": 884,
      "componentType": 5126,
      "count": 126,
      "max": [
        10.416666984558105
      ],
      "min": [
        0.0416666679084301
      ],
      "type": "SCALAR"
    },
    {
      "bufferView": 5,
      "byteOffset": 2016,
      "componentType": 5126,
      "count": 126,
      "max": [
        0.999968945980072,
        0.0,
        -0.0,
        1.0
      ],
      "min": [
        -0.9990960359573364,
        0.0,
        -0.0,
        0.007883073762059212
      ],
      "type": "VEC4"
    },
    {
      "bufferView": 3,
      "byteOffset": 1388,
      "componentType": 5126,
      "count": 126,
      "max": [
        10.416666984558105
      ],
      "min": [
        0.0416666679084301
      ],
      "type": "SCALAR"
    },
    {
      "bufferView": 5,
      "byteOffset": 4032,
      "componentType": 5126,
      "count": 126,
      "max": [
        0.9999997615814209,
        0.0,
        -0.0,
        0.9999655485153198
      ],
      "min": [
        -0.999726414680481,
        0.0,
        -0.0,
        0.0007408577366732061
      ],
      "type": "VEC4"
    },
    {
      "bufferView": 3,
      "byteOffset": 1892,
      "componentType": 5126,
      "count": 3,
      "max": [
        10.416666984558105
      ],
      "min": [
        0.0416666679084301
      ],
      "type": "SCALAR"
    },
    {
      "bufferView": 4,
      "byteOffset": 1140,
      "componentType": 5126,
      "count": 3,
      "max": [
        1.0,
        1.0,
        1.0
      ],
      "min": [
        1.0,
        0.9999999403953552,
        0.9999999403953552
      ],
      "type": "VEC3"
    }
  ],
  "animations": [
    {
      "channels": [
        {
          "sampler": 0,
          "target": {
            "node": 3,
            "path": "rotation"
          }
        },
        {
          "sampler": 1,
          "target": {
            "node": 3,
            "path": "scale"
          }
        },
        {
          "sampler": 2,
          "target": {
            "node": 5,
            "path": "rotation"
          }
        },
        {
          "sampler": 3,
          "target": {
            "node": 11,
            "path": "rotation"
          }
        },
        {
          "sampler": 4,
          "target": {
            "node": 11,
            "path": "scale"
          }
        }
      ],
      "name": "Animation",
      "samplers": [
        {
          "input": 72,
          "interpolation": "LINEAR",
          "output": 73
        },
        {
          "input": 74,
          "interpolation": "LINEAR",
          "output": 75
        },
        {
          "input": 76,
          "interpolation": "LINEAR",
          "output": 77
        },
        {
          "input": 78,
          "interpolation": "LINEAR",
          "output": 79
        },
        {
          "input": 80,
          "interpolation": "LINEAR",
          "output": 81
        }
      ]
    }
  ],
  "asset": {
    "extras": {
      "author": "K- (https://sketchfab.com/K-)",
      "license": "CC-BY-4.0 (http://creativecommons.org/licenses/by/4.0/)",
      "source": "https://sketchfab.com/3d-models/pocket-watch-64f285846fa344a5b0deadc02a5f00e0",
      "title": "Pocket Watch"
    },
    "generator": "Sketchfab-15.18.0",
    "version": "2.0"
  },
  "bufferViews": [
    {
      "buffer": 0,
      "byteLength": 4234656,
      "name": "floatBufferViews",
      "target": 34963
    },
    {
      "buffer": 0,
      "byteLength": 4674664,
      "byteOffset": 4234656,
      "byteStride": 8,
      "name": "floatBufferViews",
      "target": 34962
    },
    {
      "buffer": 0,
      "byteLength": 14023992,
      "byteOffset": 8909320,
      "byteStride": 12,
      "name": "floatBufferViews",
      "target": 34962
    },
    {
      "buffer": 0,
      "byteLength": 1904,
      "byteOffset": 22933312,
      "name": "floatBufferViews"
    },
    {
      "buffer": 0,
      "byteLength": 1176,
      "byteOffset": 22935216,
      "byteStride": 12,
      "name": "floatBufferViews"
    },
    {
      "buffer": 0,
      "byteLength": 6048,
      "byteOffset": 22936392,
      "byteStride": 16,
      "name": "floatBufferViews"
    }
  ],
  "buffers": [
    {
      "byteLength": 22942440,
      "uri": "scene.bin"
    }
  ],
  "materials": [
    {
      "doubleSided": true,
      "name": "black",
      "pbrMetallicRoughness": {
        "baseColorFactor": [
          0.0,
          0.0,
          0.0,
          1.0
        ],
        "metallicFactor": 0.0,
        "roughnessFactor": 0.5
      }
    },
    {
      "doubleSided": true,
      "emissiveFactor": [
        0.23455,
        0.23455,
        0.234551
      ],
      "name": "white",
      "pbrMetallicRoughness": {
        "baseColorFactor": [
          0.8,
          0.8,
          0.8,
          1.0
        ],
        "metallicFactor": 0.0,
        "roughnessFactor": 0.5
      }
    },
    {
      "doubleSided": true,
      "emissiveFactor": [
        0.23455,
        0.23455,
        0.234551
      ],
      "name": "swirl.001",
      "pbrMetallicRoughness": {
        "metallicFactor": 0.0,
        "roughnessFactor": 0.5
      }
    },
    {
      "doubleSided": true,
      "name": "gold",
      "pbrMetallicRoughness": {
        "baseColorFactor": [
          0.651406,
          0.53948,
          0.258183,
          1.0
        ],
        "roughnessFactor": 0.11428606258609549
      }
    },
    {
      "alphaMode": "BLEND",
      "doubleSided": true,
      "name": "glass",
      "pbrMetallicRoughness": {
        "baseColorFactor": [
          1.0,
          1.0,
          1.0,
          0.6140971096292864
        ],
        "roughnessFactor": 0.0
      }
    }
  ],
  "meshes": [
    {
      "name": "Object_0",
      "primitives": [
        {
          "attributes": {
            "NORMAL": 1,
            "POSITION": 0,
            "TEXCOORD_0": 2
          },
          "indices": 3,
          "material": 0,
          "mode": 4
        }
      ]
    },
    {
      "name": "Object_1",
      "primitives": [
        {
          "attributes": {
            "NORMAL": 5,
            "POSITION": 4,
            "TEXCOORD_0": 6
          },
          "indices": 7,
          "material": 0,
          "mode": 4
        }
      ]
    },
    {
      "name": "Object_2",
      "primitives": [
        {
          "attributes": {
            "NORMAL": 9,
            "POSITION": 8,
            "TEXCOORD_0": 10
          },
          "indices": 11,
          "material": 1,
          "mode": 4
        }
      ]
    },
    {
      "name": "Object_3",
      "primitives": [
        {
          "attributes": {
            "NORMAL": 13,
            "POSITION": 12,
            "TEXCOORD_0": 14
          },
          "indices": 15,
          "material": 0,
          "mode": 4
        }
      ]
    },
    {
      "name": "Object_4",
      "primitives": [
        {
          "attributes": {
            "NORMAL": 17,
            "POSITION": 16,
            "TEXCOORD_0": 18
          },
          "indices": 19,
          "material": 2,
          "mode": 4
        }
      ]
    },
    {
      "name": "Object_5",
      "primitives": [
        {
          "attributes": {
            "NORMAL": 21,
            "POSITION": 20,
            "TEXCOORD_0": 22
          },
          "indices": 23,
          "material": 0,
          "mode": 4
        }
      ]
    },
    {
      "name": "Object_6",
      "primitives": [
        {
          "attributes": {
            "NORMAL": 25,
            "POSITION": 24,
            "TEXCOORD_0": 26
          },
          "indices": 27,
          "material": 0,
          "mode": 4
        }
      ]
    },
    {
      "name": "Object_7",
      "primitives": [
        {
          "attributes": {
            "NORMAL": 29,
            "POSITION": 28,
            "TEXCOORD_0": 30
          },
          "indices": 31,
          "material": 0,
          "mode": 4
        }
      ]
    },
    {
      "name": "Object_8",
      "primitives": [
        {
          "attributes": {
            "NORMAL": 33,
            "POSITION": 32,
            "TEXCOORD_0": 34
          },
          "indices": 35,
          "material": 1,
          "mode": 4
        }
      ]
    },
    {
      "name": "Object_9",
      "primitives": [
        {
          "attributes": {
            "NORMAL": 37,
            "POSITION": 36,
            "TEXCOORD_0": 38
          },
          "indices": 39,
          "material": 3,
          "mode": 4
        }
      ]
    },
    {
      "name": "Object_10",
      "primitives": [
        {
          "attributes": {
            "NORMAL": 41,
            "POSITION": 40,
            "TEXCOORD_0": 42
          },
          "indices": 43,
          "material": 3,
          "mode": 4
        }
      ]
    },
    {
      "name": "Object_11",
      "primitives": [
        {
          "attributes": {
            "NORMAL": 45,
            "POSITION": 44,
            "TEXCOORD_0": 46
          },
          "indices": 47,
          "material": 3,
          "mode": 4
        }
      ]
    },
    {
      "name": "Object_12",
      "primitives": [
        {
          "attributes": {
            "NORMAL": 49,
            "POSITION": 48,
            "TEXCOORD_0": 50
          },
          "indices": 51,
          "material": 3,
          "mode": 4
        }
      ]
    },
    {
      "name": "Object_13",
      "primitives": [
        {
          "attributes": {
            "NORMAL": 53,
            "POSITION": 52,
            "TEXCOORD_0": 54
          },
          "indices": 55,
          "material": 3,
          "mode": 4
        }
      ]
    },
    {
      "name": "Object_14",
      "primitives": [
        {
          "attributes": {
            "NORMAL": 57,
            "POSITION": 56,
            "TEXCOORD_0": 58
          },
          "indices": 59,
          "material": 3,
          "mode": 4
        }
      ]
    },
    {
      "name": "Object_15",
      "primitives": [
        {
          "attributes": {
            "NORMAL": 61,
            "POSITION": 60,
            "TEXCOORD_0": 62
          },
          "indices": 63,
          "material": 4,
          "mode": 4
        }
      ]
    },
    {
      "name": "Object_16",
      "primitives": [
        {
          "attributes": {
            "NORMAL": 65,
            "POSITION": 64,
            "TEXCOORD_0": 66
          },
          "indices": 67,
          "material": 4,
          "mode": 4
        }
      ]
    },
    {
      "name": "Object_17",
      "primitives": [
        {
          "attributes": {
            "NORMAL": 69,
            "POSITION": 68,
            "TEXCOORD_0": 70
          },
          "indices": 71,
          "material": 4,
          "mode": 4
        }
      ]
    }
  ],
  "nodes": [
    {
      "children": [
        1
      ],
      "matrix": [
        1.0,
        0.0,
        0.0,
        0.0,
        0.0,
        2.220446049250313e-16,
        -1.0,
        0.0,
        0.0,
        1.0,
        2.220446049250313e-16,
        0.0,
        0.0,
        0.0,
        0.0,
        1.0
      ],
      "name": "Sketchfab_model"
    },
    {
      "children": [
        2
      ],
      "name": "root"
    },
    {
      "children": [
        3,
        5,
        7,
        11,
        13,
        17,
        19
      ],
      "matrix": [
        1.0,
        0.0,
        0.0,
        0.0,
        0.0,
        2.220446049250313e-16,
        1.0,
        0.0,
        0.0,
        -1.0,
        2.220446049250313e-16,
        0.0,
        0.0,
        0.0,
        0.0,
        1.0
      ],
      "name": "GLTF_SceneRootNode"
    },
    {
      "children": [
        4
      ],
      "name": "clock hour hand_2",
      "rotation": [
        -0.18769021332263947,
        -0.18769004940986633,
        -0.6817421317100525,
        0.681742250919342
      ],
      "scale": [
        1.6185438632965088,
        1.6185438632965088,
        1.6185438632965088
      ],
      "translation": [
        0.33491429686546326,
        -0.5565100908279419,
        -0.007797654718160629
      ]
    },
    {
      "mesh": 0,
      "name": "Object_4"
    },
    {
      "children": [
        6
      ],
      "name": "clock minute hand_3",
      "rotation": [
        -4.7503093810519204e-05,
        0.0,
        0.0,
        1.0
      ],
      "translation": [
        0.31833094358444214,
        -0.5565100908279419,
        -0.007797654718160629
      ]
    },
    {
      "mesh": 1,
      "name": "Object_6"
    },
    {
      "children": [
        8,
        9,
        10
      ],
      "matrix": [
        2.7286609673258853e-07,
        -1.6185438632964857,
        0.0,
        0.0,
        1.6185438632964857,
        2.7286609673258853e-07,
        0.0,
        0.0,
        0.0,
        -0.0,
        1.6185438632965088,
        0.0,
        0.2544615566730499,
        -0.5061884522438049,
        0.018406245857477188,
        1.0
      ],
      "name": "clock1_4"
    },
    {
      "mesh": 2,
      "name": "Object_8"
    },
    {
      "mesh": 3,
      "name": "Object_9"
    },
    {
      "mesh": 4,
      "name": "Object_10"
    },
    {
      "children": [
        12
      ],
      "name": "second clock hand_5",
      "rotation": [
        -0.008305559866130352,
        0.0,
        0.0,
        0.999965488910675
      ],
      "translation": [
        0.2867511808872223,
        -1.1658122539520264,
        -0.005351745989173651
      ]
    },
    {
      "mesh": 5,
      "name": "Object_12"
    },
    {
      "children": [
        14,
        15,
        16
      ],
      "matrix": [
        4.6412855984658685e-08,
        4.641284491897283e-08,
        -0.3893392086028997,
        0.0,
        0.38933920860289145,
        -9.282570367005298e-08,
        4.641284491897283e-08,
        0.0,
        -9.282569813721005e-08,
        -0.38933920860289145,
        -4.6412855984658685e-08,
        0.0,
        0.27317559719085693,
        -0.023823870345950127,
        0.1446072906255722,
        1.0
      ],
      "name": "Text_6"
    },
    {
      "mesh": 6,
      "name": "Object_14"
    },
    {
      "mesh": 7,
      "name": "Object_15"
    },
    {
      "mesh": 8,
      "name": "Object_16"
    },
    {
      "children": [
        18
      ],
      "matrix": [
        -5.791565735129917e-08,
        0.0,
        -0.3435349166393231,
        0.0,
        0.0,
        0.21445751190185547,
        0.0,
        0.0,
        0.2902572154998738,
        0.0,
        -4.8933708401705646e-08,
        0.0,
        -0.002121593803167343,
        1.6303504705429077,
        -0.007799063343554735,
        1.0
      ],
      "name": "top_7"
    },
    {
      "mesh": 9,
      "name": "Object_18"
    },
    {
      "children": [
        20,
        21,
        22,
        23,
        24,
        25,
        26,
        27
      ],
      "matrix": [
        1.5622103021873073e-07,
        -1.8532943725585873,
        0.0,
        0.0,
        0.8196471333503695,
        6.909108530397602e-08,
        0.0,
        0.0,
        0.0,
        -0.0,
        1.8532943725585938,
        0.0,
        -0.4973520338535309,
        -0.519756019115448,
        0.010680257342755795,
        1.0
      ],
      "name": "watch_8"
    },
    {
      "mesh": 10,
      "name": "Object_20"
    },
    {
      "mesh": 11,
      "name": "Object_21"
    },
    {
      "mesh": 12,
      "name": "Object_22"
    },
    {
      "mesh": 13,
      "name": "Object_23"
    },
    {
      "mesh": 14,
      "name": "Object_24"
    },
    {
      "mesh": 15,
      "name": "Object_25"
    },
    {
      "mesh": 16,
      "name": "Object_26"
    },
    {
      "mesh": 17,
      "name": "Object_27"
    }
  ],
  "scene": 0,
  "scenes": [
    {
      "name": "Sketchfab_Scene",
      "nodes": [
        0
      ]
    }
  ]
}
